<?xml version="1.0" standalone="no"?>
<!DOCTYPE svg PUBLIC "-//W3C//DTD SVG 20010904//EN"
 "http://www.w3.org/TR/2001/REC-SVG-20010904/DTD/svg10.dtd">
<svg version="1.0" xmlns="http://www.w3.org/2000/svg"
 width="700.000000pt" height="700.000000pt" viewBox="0 0 700.000000 700.000000"
 preserveAspectRatio="xMidYMid meet">
<metadata>
Created by potrace 1.14, written by Peter Selinger 2001-2017
</metadata>
<g transform="translate(0.000000,700.000000) scale(0.100000,-0.100000)"
fill="#000000" stroke="none">
<path d="M2304 6120 c-43 -10 -80 -39 -100 -78 -13 -28 -16 -74 -16 -282 0
-277 5 -301 67 -340 65 -40 158 -18 202 48 21 32 22 43 23 282 1 300 -6 326
-90 361 -36 15 -51 17 -86 9z"/>
<path d="M740 5473 c-50 -20 -79 -51 -91 -95 -21 -79 -11 -95 180 -287 97 -98
190 -185 206 -193 114 -56 241 66 195 188 -13 34 -349 370 -384 384 -47 17
-71 18 -106 3z"/>
<path d="M3824 5472 c-35 -17 -360 -337 -379 -372 -47 -88 6 -198 103 -213 67
-11 91 6 272 185 95 95 179 183 187 195 21 32 20 105 -3 144 -36 61 -122 91
-180 61z"/>
<path d="M2189 5246 c-2 -2 -29 -7 -59 -11 -138 -17 -315 -72 -455 -144 -541
-274 -856 -854 -791 -1456 4 -38 11 -88 16 -110 5 -22 11 -52 14 -67 2 -15 7
-31 10 -36 3 -5 7 -19 10 -33 17 -94 113 -297 197 -420 73 -106 180 -223 278
-303 l69 -57 -37 -87 c-70 -161 -95 -288 -95 -472 0 -161 19 -270 69 -404 157
-417 531 -712 968 -764 94 -12 2907 -11 3017 0 417 42 793 220 1086 515 85 85
221 258 264 335 137 248 201 434 236 683 21 155 14 413 -16 559 -137 682 -633
1209 -1299 1381 -264 68 -578 71 -846 9 -298 -70 -596 -232 -811 -441 l-71
-69 -55 50 c-30 28 -69 63 -86 79 -18 15 -32 37 -33 50 -2 76 -71 293 -130
410 -22 43 -109 188 -119 197 -3 3 -25 31 -49 63 -65 85 -219 227 -321 296
-169 114 -375 198 -556 227 -20 3 -46 8 -58 11 -25 6 -342 14 -347 9z"/>
<path d="M105 3932 c-54 -8 -110 -91 -101 -150 3 -21 5 -40 6 -44 1 -23 65
-78 98 -84 54 -11 471 -11 512 -1 43 11 78 42 96 84 20 46 17 79 -8 125 -40
70 -51 73 -333 73 -137 1 -259 -1 -270 -3z"/>
<path d="M1035 2686 c-42 -20 -369 -354 -384 -392 -47 -120 96 -242 204 -175
39 24 343 327 366 366 36 57 15 146 -42 188 -34 25 -105 31 -144 13z"/>
</g>
</svg>
